<svg width="18" height="24" viewBox="0 0 18 24" fill="none" xmlns="http://www.w3.org/2000/svg">
<g id="01 align center">
<path id="Vector" d="M18 23.9L14.337 21.389L11.673 23.214L9.007 21.388L6.341 23.212L3.67 21.386L0 23.9V3C0 2.20435 0.316071 1.44129 0.87868 0.87868C1.44129 0.31607 2.20435 0 3 0L15 0C15.7956 0 16.5587 0.31607 17.1213 0.87868C17.6839 1.44129 18 2.20435 18 3V23.9ZM3.67 18.962L6.34 20.788L9.007 18.962L11.673 20.788L14.338 18.961L16 20.1V3C16 2.73478 15.8946 2.48043 15.7071 2.29289C15.5196 2.10536 15.2652 2 15 2H3C2.73478 2 2.48043 2.10536 2.29289 2.29289C2.10536 2.48043 2 2.73478 2 3V20.1L3.67 18.962Z" fill="#06414E"/>
<path id="Vector_2" d="M14.0003 8.00049H4.00031V10.0005H14.0003V8.00049Z" fill="#06414E"/>
<path id="Vector_3" d="M12.0003 12H4.00031V14H12.0003V12Z" fill="#06414E"/>
</g>
</svg>
