<svg width="57" height="58" viewBox="0 0 57 58" fill="none" xmlns="http://www.w3.org/2000/svg">
<g id="Ellipse 118">
<mask id="path-1-outside-1_435_1168" maskUnits="userSpaceOnUse" x="0" y="0.5" width="57" height="57" fill="black">
<rect fill="white" y="0.5" width="57" height="57"/>
<path d="M54 29C54 23.1004 51.9544 17.3834 48.2118 12.823C44.4691 8.26255 39.261 5.14092 33.4748 3.98998C27.6886 2.83903 21.6823 3.72997 16.4794 6.51101C11.2764 9.29204 7.19874 13.7911 4.94107 19.2416C2.68341 24.6921 2.38547 30.7567 4.09802 36.4023C5.81057 42.0478 9.42765 46.9249 14.333 50.2025C19.2383 53.4801 25.1283 54.9555 30.9994 54.3772C36.8706 53.799 42.3596 51.2028 46.5312 47.0312L44.9843 45.4843C41.1706 49.2981 36.1525 51.6715 30.785 52.2001C25.4175 52.7288 20.0328 51.38 15.5483 48.3835C11.0639 45.3871 7.75709 40.9284 6.19146 35.7672C4.62582 30.606 4.8982 25.0616 6.96218 20.0787C9.02616 15.0959 12.754 10.9828 17.5106 8.44033C22.2672 5.89788 27.7582 5.08337 33.048 6.13557C38.3378 7.18778 43.0991 10.0416 46.5207 14.2108C49.9423 18.38 51.8124 23.6066 51.8124 29H54Z"/>
</mask>
<path d="M54 29C54 23.1004 51.9544 17.3834 48.2118 12.823C44.4691 8.26255 39.261 5.14092 33.4748 3.98998C27.6886 2.83903 21.6823 3.72997 16.4794 6.51101C11.2764 9.29204 7.19874 13.7911 4.94107 19.2416C2.68341 24.6921 2.38547 30.7567 4.09802 36.4023C5.81057 42.0478 9.42765 46.9249 14.333 50.2025C19.2383 53.4801 25.1283 54.9555 30.9994 54.3772C36.8706 53.799 42.3596 51.2028 46.5312 47.0312L44.9843 45.4843C41.1706 49.2981 36.1525 51.6715 30.785 52.2001C25.4175 52.7288 20.0328 51.38 15.5483 48.3835C11.0639 45.3871 7.75709 40.9284 6.19146 35.7672C4.62582 30.606 4.8982 25.0616 6.96218 20.0787C9.02616 15.0959 12.754 10.9828 17.5106 8.44033C22.2672 5.89788 27.7582 5.08337 33.048 6.13557C38.3378 7.18778 43.0991 10.0416 46.5207 14.2108C49.9423 18.38 51.8124 23.6066 51.8124 29H54Z" fill="url(#paint0_linear_435_1168)"/>
<path d="M54 29C54 23.1004 51.9544 17.3834 48.2118 12.823C44.4691 8.26255 39.261 5.14092 33.4748 3.98998C27.6886 2.83903 21.6823 3.72997 16.4794 6.51101C11.2764 9.29204 7.19874 13.7911 4.94107 19.2416C2.68341 24.6921 2.38547 30.7567 4.09802 36.4023C5.81057 42.0478 9.42765 46.9249 14.333 50.2025C19.2383 53.4801 25.1283 54.9555 30.9994 54.3772C36.8706 53.799 42.3596 51.2028 46.5312 47.0312L44.9843 45.4843C41.1706 49.2981 36.1525 51.6715 30.785 52.2001C25.4175 52.7288 20.0328 51.38 15.5483 48.3835C11.0639 45.3871 7.75709 40.9284 6.19146 35.7672C4.62582 30.606 4.8982 25.0616 6.96218 20.0787C9.02616 15.0959 12.754 10.9828 17.5106 8.44033C22.2672 5.89788 27.7582 5.08337 33.048 6.13557C38.3378 7.18778 43.0991 10.0416 46.5207 14.2108C49.9423 18.38 51.8124 23.6066 51.8124 29H54Z" stroke="#A9FD1F" stroke-width="6" mask="url(#path-1-outside-1_435_1168)"/>
</g>
<defs>
<linearGradient id="paint0_linear_435_1168" x1="28.5" y1="3.5" x2="28.5" y2="54.5" gradientUnits="userSpaceOnUse">
<stop stop-color="#BDDD4D"/>
<stop offset="1" stop-color="#9DD4CF"/>
</linearGradient>
</defs>
</svg>
