<svg width="24" height="24" viewBox="0 0 24 24" fill="none" xmlns="http://www.w3.org/2000/svg">
<g id="Group">
<path id="Vector" d="M22.9747 8.69539L15.8887 1.6094C13.7393 -0.534515 10.2602 -0.534515 8.11072 1.6094L1.02474 8.69539C0.366238 9.35037 -0.00285462 10.2416 -0.000276501 11.1704V21.5483C0.00192662 22.903 1.10011 24.0002 2.45475 24.0014H21.5447C22.8993 24.0003 23.9975 22.903 23.9997 21.5483V11.1704C24.0023 10.2416 23.6332 9.35037 22.9747 8.69539ZM20.9997 21.0014H15.9997V17.8194C15.9997 15.7107 14.2903 14.0013 12.1817 14.0013H11.8177C9.70911 14.0013 7.99972 15.7107 7.99972 17.8194V21.0014H2.99972V11.1704C3.00005 11.0378 3.05245 10.9107 3.14573 10.8164L10.2317 3.7304C11.2079 2.75395 12.7908 2.75376 13.7673 3.72993C13.7674 3.73007 13.7676 3.73026 13.7677 3.7304L20.8537 10.8164C20.9469 10.9107 20.9994 11.0378 20.9997 11.1704V21.0014H20.9997Z" fill="#06414E"/>
</g>
</svg>
