<svg width="184" height="176" viewBox="0 0 184 176" fill="none" xmlns="http://www.w3.org/2000/svg">
<g id="Group 133">
<path id="Ellipse 58" d="M161.898 91.7722C161.898 130.502 130.502 161.898 91.7722 161.898C53.0427 161.898 21.6463 130.502 21.6463 91.7722C21.6463 53.0427 53.0427 21.6463 91.7722 21.6463C130.502 21.6463 161.898 53.0427 161.898 91.7722Z" stroke="#06414E" stroke-width="27.2925"/>
<path id="Ellipse 60" d="M162.235 92.0435C162.235 77.3103 157.575 62.9532 148.92 51.0196C140.265 39.086 128.056 30.1853 114.035 25.5866C100.014 20.9879 84.8965 20.9262 70.8382 25.4101C56.7799 29.8941 44.4987 38.6948 35.746 50.5573C26.9932 62.4197 22.2158 76.7383 22.0951 91.471C21.9743 106.204 26.5163 120.598 35.0733 132.602C43.6304 144.606 55.7656 153.606 69.7485 158.319" stroke="#9ED3CE" stroke-width="27.2925"/>
<path id="Ellipse 59" d="M162.236 92.0749C162.236 80.0929 159.138 68.3116 153.24 57.8593C147.342 47.407 138.84 38.6339 128.549 32.3801C118.259 26.1264 106.524 22.6015 94.4689 22.143C82.4136 21.6846 70.4417 24.308 59.6999 29.762C48.958 35.2159 39.806 43.3177 33.1203 53.2915C26.4346 63.2652 22.4391 74.7768 21.5167 86.7238C20.5942 98.6707 22.7756 110.653 27.8519 121.522" stroke="#A9FD1F" stroke-width="27.2925"/>
<path id="Ellipse 61" opacity="0.15" d="M162.236 92.0749C162.236 80.0929 159.138 68.3116 153.24 57.8593C147.342 47.407 138.84 38.6339 128.55 32.3801C118.259 26.1264 106.524 22.6015 94.469 22.143C82.4138 21.6846 70.4419 24.308 59.7001 29.762C48.9582 35.2159 39.8061 43.3177 33.1204 53.2915C26.4347 63.2652 22.4393 74.7768 21.5169 86.7238C20.5944 98.6707 22.7758 110.653 27.8521 121.522" stroke="#A9FD1F" stroke-width="42.29"/>
</g>
</svg>
