<svg width="24" height="24" viewBox="0 0 24 24" fill="none" xmlns="http://www.w3.org/2000/svg">
<g id="fi-rr-lock" clip-path="url(#clip0_435_1229)">
<path id="Vector" d="M18.9999 8.424V7C18.9999 5.14348 18.2624 3.36301 16.9497 2.05025C15.6369 0.737498 13.8564 0 11.9999 0C10.1434 0 8.36292 0.737498 7.05016 2.05025C5.73741 3.36301 4.99991 5.14348 4.99991 7V8.424C4.10927 8.81271 3.3512 9.45252 2.81841 10.2652C2.28561 11.0779 2.00119 12.0282 1.99991 13V19C2.0015 20.3256 2.52879 21.5964 3.46613 22.5338C4.40347 23.4711 5.67431 23.9984 6.99991 24H16.9999C18.3255 23.9984 19.5964 23.4711 20.5337 22.5338C21.471 21.5964 21.9983 20.3256 21.9999 19V13C21.9986 12.0282 21.7142 11.0779 21.1814 10.2652C20.6486 9.45252 19.8905 8.81271 18.9999 8.424ZM6.99991 7C6.99991 5.67392 7.52669 4.40215 8.46437 3.46447C9.40206 2.52678 10.6738 2 11.9999 2C13.326 2 14.5978 2.52678 15.5354 3.46447C16.4731 4.40215 16.9999 5.67392 16.9999 7V8H6.99991V7ZM19.9999 19C19.9999 19.7956 19.6838 20.5587 19.1212 21.1213C18.5586 21.6839 17.7956 22 16.9999 22H6.99991C6.20426 22 5.4412 21.6839 4.87859 21.1213C4.31598 20.5587 3.99991 19.7956 3.99991 19V13C3.99991 12.2044 4.31598 11.4413 4.87859 10.8787C5.4412 10.3161 6.20426 10 6.99991 10H16.9999C17.7956 10 18.5586 10.3161 19.1212 10.8787C19.6838 11.4413 19.9999 12.2044 19.9999 13V19Z" fill="#838383"/>
<path id="Vector_2" d="M11.9999 13.9995C11.7347 13.9995 11.4804 14.1049 11.2928 14.2924C11.1053 14.4799 10.9999 14.7343 10.9999 14.9995V16.9995C10.9999 17.2647 11.1053 17.5191 11.2928 17.7066C11.4804 17.8941 11.7347 17.9995 11.9999 17.9995C12.2652 17.9995 12.5195 17.8941 12.7071 17.7066C12.8946 17.5191 13 17.2647 13 16.9995V14.9995C13 14.7343 12.8946 14.4799 12.7071 14.2924C12.5195 14.1049 12.2652 13.9995 11.9999 13.9995Z" fill="#838383"/>
</g>
<defs>
<clipPath id="clip0_435_1229">
<rect width="24" height="24" fill="white"/>
</clipPath>
</defs>
</svg>
