<svg width="61" height="62" viewBox="0 0 61 62" fill="none" xmlns="http://www.w3.org/2000/svg">
<g id="LOGO">
<path id="Vector" d="M24.9036 0.431305C17.5822 1.89928 10.8567 5.91461 6.5575 11.4411C4.21634 14.4202 1.49209 19.9035 0.640759 23.3575C-0.295703 27.0275 -0.21057 27.4592 1.19412 27.4592C3.10961 27.4592 9.32432 29.1863 12.2188 30.5247C18.4335 33.3311 25.7975 39.937 28.9474 45.4635L30.3947 48.0972L32.0974 45.2476C35.6729 39.1598 43.5903 32.3812 50.0604 29.9202C53.4232 28.625 57.9352 27.4592 59.7656 27.4592H61L60.702 25.2141C59.9784 19.9035 56.5731 13.5135 51.9333 8.85055C46.6125 3.4536 39.5465 0.38813 31.7143 0.0427246C29.4582 -0.0868034 26.6489 0.0858994 24.9036 0.431305Z" fill="#BFDE52"/>
<path id="Vector_2" d="M0.00221608 35.9217C0.00221608 39.4621 4.04603 48.1836 7.49391 51.983C11.9208 56.9482 18.8166 60.9635 24.3928 61.7839C26.7765 62.1725 26.7339 62.2156 25.5421 57.5095C24.2225 52.1557 22.0516 48.529 17.6673 44.0819C14.5174 40.8869 13.1978 39.8507 10.2182 38.3827C8.21754 37.3897 5.23789 36.3103 3.53523 35.9217C-0.210616 35.1014 0.00221608 35.1014 0.00221608 35.9217Z" fill="#BFDE52"/>
<path id="Vector_3" d="M56.7007 36.051C51.2522 37.4326 47.5063 39.6346 43.2071 44.0385C38.8228 48.5287 36.6519 52.1987 35.3323 57.5092C34.2681 61.7405 34.2681 61.9995 35.5451 61.9995C37.2904 61.9995 42.7814 60.0566 45.7611 58.3728C53.1251 54.1847 59.6803 44.8588 60.7445 37.0872C61.0424 34.9284 61.1701 34.9716 56.7007 36.051Z" fill="#BFDE52"/>
</g>
</svg>
