<svg width="61" height="62" viewBox="0 0 61 62" fill="none" xmlns="http://www.w3.org/2000/svg">
<g id="LOGO DARK DASHBOARD">
<path id="Union" fill-rule="evenodd" clip-rule="evenodd" d="M24.9035 0.431585C17.5821 1.89956 10.8566 5.91489 6.55736 11.4414C4.2162 14.4205 1.49195 19.9038 0.640621 23.3578C-0.295841 27.0278 -0.210708 27.4595 1.19399 27.4595C3.10948 27.4595 9.32418 29.1865 12.2187 30.525C18.4334 33.3314 25.7974 39.9373 28.9473 45.4637L30.3946 48.0974L32.0972 45.2479C35.6728 39.1601 43.5902 32.3815 50.0603 29.9205C53.423 28.6253 57.9351 27.4595 59.7654 27.4595H60.9999L60.7019 25.2144C59.9783 19.9038 56.5729 13.5138 51.9332 8.85083C46.6124 3.45388 39.5464 0.38841 31.7141 0.0430049C29.4581 -0.0865219 26.6487 0.0861805 24.9035 0.431585ZM0.00221608 35.922C0.00221608 39.4624 4.04603 48.1838 7.49391 51.9833C11.9208 56.9485 18.8166 60.9638 24.3928 61.7842L24.4705 61.7968C25.3761 61.9447 25.9174 62.033 26.1695 61.8036C26.5442 61.4626 26.2797 60.4193 25.6221 57.8254C25.596 57.7226 25.5694 57.6174 25.5421 57.5098C24.2225 52.156 22.0516 48.5292 17.6673 44.0822C14.5174 40.8872 13.1978 39.851 10.2182 38.383C8.21754 37.3899 5.23789 36.3106 3.53523 35.922C3.33322 35.8777 3.14272 35.8359 2.96308 35.7964C0.819678 35.3255 0.222238 35.1942 0.0593347 35.4026C-0.00361935 35.4832 -0.00167808 35.6144 0.0010134 35.7964C0.0015971 35.8359 0.00221608 35.8777 0.00221608 35.922ZM43.2072 44.039C47.5064 39.6351 51.2523 37.4331 56.7008 36.0515C59.3953 35.4008 60.419 35.1266 60.7418 35.4846C60.9544 35.7204 60.8629 36.2304 60.7446 37.0877C59.6804 44.8593 53.1252 54.1852 45.7612 58.3733C42.7815 60.0571 37.2905 62 35.5452 62C34.2683 62 34.2683 61.741 35.3324 57.5098C36.652 52.1992 38.8229 48.5292 43.2072 44.039Z" fill="#06414E"/>
</g>
</svg>
