<svg width="200" height="238" viewBox="0 0 200 238" fill="none" xmlns="http://www.w3.org/2000/svg">
<path d="M169.416 83.538V69.4167C169.416 51.0062 162.102 33.3498 149.084 20.3317C136.066 7.31352 118.41 0 99.9992 0C81.5887 0 63.9323 7.31352 50.9142 20.3317C37.896 33.3498 30.5825 51.0062 30.5825 69.4167V83.538C21.7503 87.3927 14.2328 93.7375 8.9493 101.797C3.66576 109.856 0.845197 119.28 0.83252 128.917V188.417C0.848266 201.562 6.07727 214.165 15.3725 223.46C24.6678 232.755 37.2704 237.984 50.4158 238H149.583C162.728 237.984 175.331 232.755 184.626 223.46C193.921 214.165 199.15 201.562 199.166 188.417V128.917C199.153 119.28 196.333 109.856 191.049 101.797C185.766 93.7375 178.248 87.3927 169.416 83.538V83.538ZM50.4158 69.4167C50.4158 56.2664 55.6398 43.6546 64.9385 34.356C74.2371 25.0573 86.8489 19.8333 99.9992 19.8333C113.149 19.8333 125.761 25.0573 135.06 34.356C144.359 43.6546 149.583 56.2664 149.583 69.4167V79.3333H50.4158V69.4167ZM179.333 188.417C179.333 196.307 176.198 203.874 170.619 209.453C165.04 215.032 157.473 218.167 149.583 218.167H50.4158C42.5257 218.167 34.9586 215.032 29.3794 209.453C23.8002 203.874 20.6659 196.307 20.6659 188.417V128.917C20.6659 121.026 23.8002 113.459 29.3794 107.88C34.9586 102.301 42.5257 99.1667 50.4158 99.1667H149.583C157.473 99.1667 165.04 102.301 170.619 107.88C176.198 113.459 179.333 121.026 179.333 128.917V188.417Z" fill="#838383"/>
</svg>
