<svg width="24" height="24" viewBox="0 0 24 24" fill="none" xmlns="http://www.w3.org/2000/svg">
<g id="fi-rr-carrot" clip-path="url(#clip0_435_1154)">
<path id="Vector" d="M22.9999 5H20.4139L22.7069 2.707C22.889 2.5184 22.9898 2.2658 22.9876 2.0036C22.9853 1.7414 22.8801 1.49059 22.6947 1.30518C22.5093 1.11977 22.2585 1.0146 21.9963 1.01233C21.7341 1.01005 21.4815 1.11084 21.2929 1.293L18.9999 3.586V1C18.9999 0.734784 18.8945 0.48043 18.707 0.292893C18.5195 0.105357 18.2651 0 17.9999 0C17.7347 0 17.4803 0.105357 17.2928 0.292893C17.1052 0.48043 16.9999 0.734784 16.9999 1V5.456C16.1813 4.58461 15.2151 3.86486 14.1459 3.33C13.3952 2.99886 12.5568 2.92204 11.7584 3.11122C10.96 3.3004 10.2452 3.74522 9.72288 4.378C7.96488 6.136 3.06488 15.121 0.299884 20.319C0.0568733 20.792 -0.0297265 21.3298 0.0525613 21.8552C0.134849 22.3805 0.381776 22.8661 0.757766 23.2421C1.13376 23.6181 1.6194 23.865 2.14472 23.9473C2.67005 24.0296 3.20793 23.943 3.68088 23.7C8.88088 20.936 17.8639 16.035 19.6219 14.277C20.2545 13.7548 20.6993 13.0402 20.8886 12.2421C21.0779 11.4439 21.0015 10.6057 20.6709 9.855C20.1353 8.78564 19.4153 7.81916 18.5439 7H22.9999C23.2651 7 23.5195 6.89464 23.707 6.70711C23.8945 6.51957 23.9999 6.26522 23.9999 6C23.9999 5.73478 23.8945 5.48043 23.707 5.29289C23.5195 5.10536 23.2651 5 22.9999 5ZM18.2079 12.863C17.4929 13.4747 16.7257 14.0225 15.9149 14.5L13.7069 12.293C13.5183 12.1108 13.2657 12.01 13.0035 12.0123C12.7413 12.0146 12.4905 12.1198 12.3051 12.3052C12.1197 12.4906 12.0145 12.7414 12.0122 13.0036C12.0099 13.2658 12.1107 13.5184 12.2929 13.707L14.1629 15.576C11.4169 17.219 7.47388 19.418 2.74188 21.934C2.64736 21.9841 2.53925 22.0026 2.43344 21.9868C2.32763 21.9709 2.2297 21.9215 2.15404 21.8458C2.07838 21.7702 2.02899 21.6723 2.01312 21.5664C1.99726 21.4606 2.01575 21.3525 2.06588 21.258C3.58788 18.397 4.98888 15.834 6.22588 13.64L8.29288 15.707C8.48149 15.8892 8.73409 15.99 8.99628 15.9877C9.25848 15.9854 9.50929 15.8802 9.6947 15.6948C9.88011 15.5094 9.98528 15.2586 9.98756 14.9964C9.98984 14.7342 9.88904 14.4816 9.70688 14.293L7.25088 11.837C8.34088 9.948 9.25688 8.437 9.95988 7.374L12.2929 9.707C12.4815 9.88916 12.7341 9.98995 12.9963 9.98767C13.2585 9.9854 13.5093 9.88023 13.6947 9.69482C13.8801 9.50941 13.9853 9.2586 13.9876 8.9964C13.9898 8.7342 13.889 8.4816 13.7069 8.293L11.1739 5.76C12.0209 4.971 12.5399 4.838 13.3569 5.168C14.4909 5.8152 15.5079 6.64887 16.3649 7.634C17.3504 8.49132 18.1844 9.50856 18.8319 10.643C19.0809 11.223 19.1779 11.894 18.2079 12.863Z" fill="#06414E"/>
</g>
<defs>
<clipPath id="clip0_435_1154">
<rect width="24" height="24" fill="white"/>
</clipPath>
</defs>
</svg>
